Coordinates
version=1
nRows=13
nColumns=40
inDegrees=yes

Units are S.I. units (second, meters, Newtons, ...)
If the header above contains a line with 'inDegrees', this indicates whether rotational values are in degrees (yes) or radians (no).

endheader
time	pelvis_tilt	pelvis_list	pelvis_rotation	pelvis_tx	pelvis_ty	pelvis_tz	hip_flexion_r	hip_adduction_r	hip_rotation_r	knee_angle_r	knee_angle_r_beta	ankle_angle_r	subtalar_angle_r	mtp_angle_r	hip_flexion_l	hip_adduction_l	hip_rotation_l	knee_angle_l	knee_angle_l_beta	ankle_angle_l	subtalar_angle_l	mtp_angle_l	lumbar_extension	lumbar_bending	lumbar_rotation	arm_flex_r	arm_add_r	arm_rot_r	elbow_flex_r	pro_sup_r	wrist_flex_r	wrist_dev_r	arm_flex_l	arm_add_l	arm_rot_l	elbow_flex_l	pro_sup_l	wrist_flex_l	wrist_dev_l
      2.78000000	    -23.47387505	      1.38150789	     -5.11786354	      0.95473620	      1.00923370	     -0.36345229	     61.69573329	     -5.11474003	     -3.94899815	     70.80325443	      1.23574991	    -16.17531682	      0.00000000	      0.00000000	      7.66479843	      4.82712061	    -12.50483444	     13.07890270	      0.22826991	    -28.10001385	      0.00000000	      0.00000000	     15.30083174	      1.03428703	     -7.13349348	    -38.57415867	    -28.61114774	     -4.46112950	     87.43461741	     73.74419362	      0.00000000	      0.00000000	    -26.93629915	    -11.45929452	    -11.59875251	    117.86628808	     71.69143895	      0.00000000	      0.00000000
      2.79000000	    -24.30395506	     -0.84752595	     -5.94977037	      0.95819696	      1.01548751	     -0.36241624	     61.12449460	     -2.49430076	     -6.80428810	     63.30691806	      1.10491416	    -17.40607357	      0.00000000	      0.00000000	      5.30405928	      2.29308425	    -13.48804916	     10.64592373	      0.18580642	    -34.10981765	      0.00000000	      0.00000000	     16.47920429	      4.02606905	     -7.79992736	    -40.96052467	    -28.45675079	     -6.84029565	     90.45961995	     73.27970298	      0.00000000	      0.00000000	    -27.85370125	    -10.81731701	    -11.43188247	    121.58366516	     71.78026709	      0.00000000	      0.00000000
      2.80000000	    -24.43650707	      0.08190629	     -6.12297733	      0.96052189	      1.02037802	     -0.36308192	     60.85184988	     -2.96334926	     -8.11741461	     57.07760166	      0.99619208	    -17.14876747	      0.00000000	      0.00000000	      3.65914498	      3.25704550	    -13.93708531	     10.67635193	      0.18633749	    -35.23885097	      0.00000000	      0.00000000	     16.98534670	      3.24868458	     -7.92627108	    -42.53150833	    -28.55600709	     -7.38000476	     91.44591307	     73.11309782	      0.00000000	      0.00000000	    -28.63358171	    -11.48127981	    -11.69257804	    123.01676357	     71.77584361	      0.00000000	      0.00000000
      2.81000000	    -24.69347376	      0.62814780	     -6.02849535	      0.96282400	      1.02485690	     -0.36251072	     60.13651858	     -2.82016877	     -9.53002188	     50.04172269	      0.87339282	    -17.41273866	      0.00000000	      0.00000000	      2.16736742	      3.64895909	    -14.13676162	     10.41745640	      0.18181891	    -36.93616420	      0.00000000	      0.00000000	     17.53980161	      2.55704019	     -8.29525295	    -44.07312670	    -28.15935024	     -7.95725956	     92.90177371	     72.97328436	      0.00000000	      0.00000000	    -29.46964927	    -12.12281989	    -11.89407361	    125.29082569	     71.84189519	      0.00000000	      0.00000000
      2.82000000	    -24.83933923	      0.70439277	     -5.95450342	      0.96555596	      1.02872417	     -0.36214958	     58.73812116	     -1.96460667	    -10.70611136	     42.25234335	      0.73744251	    -18.77035408	      0.00000000	      0.00000000	      0.64854698	      3.61450874	    -13.78011587	     10.42421183	      0.18193682	    -37.78904208	      0.00000000	      0.00000000	     18.03197636	      2.56577691	     -8.80970458	    -45.47954735	    -27.49305665	     -8.85179724	     94.74247312	     72.73702179	      0.00000000	      0.00000000	    -30.42746631	    -12.65966832	    -11.97327184	    127.91156755	     71.91316219	      0.00000000	      0.00000000
      2.83000000	    -24.49962664	     -1.33725078	     -5.87491551	      0.96806506	      1.03319828	     -0.36092789	     55.74844572	      0.96918157	    -11.79304053	     32.74981127	      0.57159204	    -23.92282589	      0.00000000	      0.00000000	     -1.20235222	      1.16234737	    -12.17534590	     11.12928886	      0.19424273	    -38.10814566	      0.00000000	      0.00000000	     17.53044075	      4.86655348	     -9.83742356	    -46.54974314	    -26.50554005	    -10.88458093	     96.90759536	     71.99767535	      0.00000000	      0.00000000	    -30.41309348	    -12.71981087	    -11.55605082	    129.78863629	     71.93107300	      0.00000000	      0.00000000
      2.84000000	    -23.47475708	     -1.16155266	     -5.65568659	      0.97118886	      1.03600489	     -0.36025616	     53.17723925	      1.72540017	    -12.46397791	     25.74478158	      0.44933120	    -26.36125710	      0.00000000	      0.00000000	     -3.32176051	      1.23865842	    -11.00624324	     12.40195910	      0.21645502	    -38.19392419	      0.00000000	      0.00000000	     16.59115791	      4.57935385	    -10.00913653	    -47.60176954	    -25.59631430	    -11.93352159	     98.16558551	     71.21821152	      0.00000000	      0.00000000	    -30.92467568	    -13.68048168	    -11.12608690	    130.52975528	     71.80432840	      0.00000000	      0.00000000
      2.85000000	    -22.70178809	     -0.03880159	     -5.26747879	      0.97364602	      1.03688489	     -0.35923264	     51.58782335	      1.56651566	    -12.47679767	     20.69500227	      0.36119593	    -26.81234375	      0.00000000	      0.00000000	     -4.88806075	      2.23684795	     -9.72537921	     13.90337811	      0.24265973	    -38.17552829	      0.00000000	      0.00000000	     15.88954168	      3.07187484	    -10.28452072	    -48.14910079	    -24.65164554	    -12.12388696	     99.55049450	     70.85497272	      0.00000000	      0.00000000	    -31.58705696	    -14.81308617	    -11.05891517	    131.73736112	     71.68437140	      0.00000000	      0.00000000
      2.86000000	    -22.14712101	      0.88959506	     -5.90403838	      0.97689517	      1.03625533	     -0.35784358	     51.06378188	      1.91428581	    -12.86814400	     18.33804667	      0.32005929	    -26.52903166	      0.00000000	      0.00000000	     -6.24219794	      3.20362896	     -8.68980706	     15.55986479	      0.27157087	    -38.15630009	      0.00000000	      0.00000000	     15.76520324	      2.15394092	     -9.60079047	    -48.53331628	    -24.56317960	    -12.26542399	    100.03185085	     70.75564710	      0.00000000	      0.00000000	    -33.02584827	    -15.33888326	    -10.99375130	    131.88311533	     71.63745896	      0.00000000	      0.00000000
      2.87000000	    -20.34488134	      1.16775259	     -5.18110779	      0.97744420	      1.03800002	     -0.35746761	     47.30915280	      2.41334014	     -8.96823571	     12.22676329	      0.21339728	    -27.62221442	      0.00000000	      0.00000000	     -7.77701322	      3.27412916	     -5.84678614	     18.98810071	      0.33140488	    -37.82998509	      0.00000000	      0.00000000	     13.23354940	      1.48716428	    -10.26184663	    -48.00104579	    -23.37704939	    -12.33545989	    101.30050320	     70.24018729	      0.00000000	      0.00000000	    -32.78847888	    -16.63601129	    -10.30348710	    132.31884413	     71.34012356	      0.00000000	      0.00000000
      2.88000000	    -19.78732504	      1.88251350	     -6.27014452	      0.97982540	      1.03658460	     -0.35602767	     46.52291518	      3.04318796	     -8.91570243	     10.71543941	      0.18701970	    -27.16202081	      0.00000000	      0.00000000	     -8.59960479	      4.13349830	     -5.15886293	     21.21052024	      0.37019341	    -37.89265241	      0.00000000	      0.00000000	     12.77150528	      1.02392947	     -9.16874923	    -47.80101318	    -23.27982597	    -12.28149228	    101.54228122	     70.14713969	      0.00000000	      0.00000000	    -33.95716215	    -16.80397699	    -10.03058708	    131.70687763	     71.27457301	      0.00000000	      0.00000000
      2.89000000	    -18.00083294	      2.18782044	     -6.16843778	      0.98020106	      1.03693372	     -0.35534286	     43.55687392	      3.17085331	     -6.12174483	      8.15382110	      0.14231102	    -27.19577134	      0.00000000	      0.00000000	     -8.96662133	      3.93080568	     -5.25170463	     26.75460158	      0.46695589	    -37.50097998	      0.00000000	      0.00000000	     10.53137883	      0.51606477	     -8.89786462	    -46.75181583	    -22.61654001	    -11.82621068	    102.00385375	     69.87357122	      0.00000000	      0.00000000	    -33.27017174	    -17.73467880	     -9.29094279	    130.30790201	     71.11021680	      0.00000000	      0.00000000
      2.90000000	    -17.28383595	      2.70326927	     -7.59413842	      0.98265079	      1.03492525	     -0.35318245	     42.15408234	      3.95052556	     -6.14444620	      7.28174278	      0.12709039	    -26.76332947	      0.00000000	      0.00000000	     -9.17435414	      4.55302179	     -5.14611807	     30.04007464	      0.52429821	    -37.63279764	      0.00000000	      0.00000000	      9.87292170	      0.27817973	     -7.39229428	    -46.18198599	    -22.42526264	    -11.65630527	    101.91452432	     69.78532475	      0.00000000	      0.00000000	    -34.56175003	    -17.65237418	     -8.83433887	    129.05923544	     71.06690193	      0.00000000	      0.00000000
